<?xml version="1.0" encoding="iso-8859-1"?>
<!-- Generator: Adobe Illustrator 26.5.0, SVG Export Plug-In . SVG Version: 6.00 Build 0)  -->
<svg version="1.1" id="Layer_2_00000003069343789004363370000013211057351390672802_"
	 xmlns="http://www.w3.org/2000/svg" xmlns:xlink="http://www.w3.org/1999/xlink" x="0px" y="0px" viewBox="0 0 157.008 240"
	 style="enable-background:new 0 0 157.008 240;" xml:space="preserve">
<path style="fill:#BC97F7;" d="M121.551,43.476L79.862,0.575C79.505,0.208,79.016,0,78.504,0l0,0c-0.512,0-1.001,0.206-1.358,0.573
	l-76.61,78.78C0.192,79.706,0,80.18,0,80.674v78.716c0,0.493,0.192,0.968,0.536,1.321l76.61,78.716
	c0.356,0.367,0.846,0.573,1.358,0.573s1.001-0.206,1.358-0.573l76.61-78.716c0.344-0.353,0.536-0.828,0.536-1.321V80.674
	c0-0.493-0.192-0.968-0.536-1.321l-34.919-35.877L121.551,43.476z M153.22,158.623l-74.716,76.771L3.788,158.621V81.443
	L78.504,4.611l40.331,41.504l0,0l34.385,35.328v77.178V158.623z"/>
</svg>
