<svg width="101" height="100" viewBox="0 0 101 100" fill="none" xmlns="http://www.w3.org/2000/svg">
<rect x="7" y="36" width="88" height="28" rx="8" stroke="#0077B7" stroke-width="2"/>
<path d="M58.3729 41H43.6271C43.1956 41 42.7819 41.1713 42.4767 41.4765C42.1716 41.7816 42 42.1955 42 42.6271V57.3726C42 57.8041 42.1716 58.218 42.4767 58.5231C42.7819 58.8283 43.1956 58.9997 43.6271 58.9997H58.3729C58.8044 58.9997 59.2183 58.8283 59.5233 58.5231C59.8284 58.218 60 57.8041 60 57.3726V42.6271C60 42.1955 59.8284 41.7816 59.5233 41.4765C59.2183 41.1713 58.8044 41 58.3729 41ZM47.5643 56.5445C47.5643 56.6055 47.5522 56.666 47.5288 56.7223C47.5054 56.7789 47.4711 56.8301 47.428 56.8733C47.3848 56.9164 47.3336 56.9507 47.2772 56.9741C47.2208 56.9974 47.1604 57.0094 47.0994 57.0094H45.0799C45.0177 57.0113 44.9557 57.0008 44.8977 56.9783C44.8396 56.9558 44.7866 56.9218 44.7418 56.8785C44.6971 56.8351 44.6616 56.7832 44.6374 56.7258C44.6131 56.6684 44.6006 56.6068 44.6006 56.5445V48.075C44.6006 48.0127 44.6131 47.9509 44.6374 47.8936C44.6616 47.8362 44.6971 47.7842 44.7418 47.7409C44.7866 47.6974 44.8396 47.6637 44.8977 47.6412C44.9557 47.6187 45.0177 47.6079 45.0799 47.61H47.0994C47.1604 47.61 47.2208 47.622 47.2772 47.6454C47.3336 47.6688 47.3848 47.7029 47.428 47.7461C47.4711 47.7892 47.5054 47.8405 47.5288 47.8969C47.5522 47.9533 47.5643 48.0138 47.5643 48.075V56.5445ZM46.1115 46.8111C45.6029 46.8111 45.115 46.6089 44.7555 46.2492C44.3958 45.8896 44.1938 45.4019 44.1938 44.8933C44.1938 44.3847 44.3958 43.897 44.7555 43.5373C45.115 43.1777 45.6029 42.9756 46.1115 42.9756C46.62 42.9756 47.1078 43.1777 47.4674 43.5373C47.8271 43.897 48.0292 44.3847 48.0292 44.8933C48.0292 45.1475 47.9786 45.3993 47.8804 45.6339C47.7822 45.8684 47.6384 46.0812 47.4572 46.2596C47.276 46.4382 47.0612 46.5788 46.8251 46.6734C46.5892 46.7681 46.3367 46.8149 46.0823 46.8111H46.1115ZM58.1403 56.5736C58.1423 56.6314 58.1326 56.6891 58.1114 56.7428C58.0902 56.7966 58.0582 56.8454 58.0173 56.8862C57.9764 56.9272 57.9275 56.9593 57.8737 56.9805C57.82 57.0016 57.7623 57.0114 57.7045 57.0094H55.54C55.4822 57.0114 55.4245 57.0016 55.3707 56.9805C55.317 56.9593 55.2682 56.9272 55.2272 56.8862C55.1864 56.8454 55.1543 56.7966 55.1331 56.7428C55.1119 56.6891 55.1021 56.6314 55.1042 56.5736V52.6075C55.1042 52.0119 55.2785 50.0216 53.5497 50.0216C52.2277 50.0216 51.9515 51.3872 51.8934 51.9973V56.5445C51.8954 56.6023 51.8857 56.6599 51.8645 56.7138C51.8433 56.7675 51.8113 56.8163 51.7703 56.8572C51.7295 56.8981 51.6806 56.9302 51.6268 56.9513C51.573 56.9725 51.5154 56.9825 51.4577 56.9805H49.3657C49.2501 56.9805 49.1392 56.9344 49.0576 56.8528C48.9758 56.771 48.9299 56.6602 48.9299 56.5445V48.0167C48.9299 47.9011 48.9758 47.7903 49.0576 47.7086C49.1392 47.6268 49.2501 47.5809 49.3657 47.5809H51.4577C51.5154 47.5789 51.573 47.5888 51.6268 47.61C51.6806 47.6312 51.7295 47.6633 51.7703 47.7041C51.8113 47.7449 51.8433 47.7937 51.8645 47.8476C51.8857 47.9014 51.8954 47.9589 51.8934 48.0167V48.7577C52.1956 48.3024 52.6166 47.9384 53.111 47.7054C53.6052 47.4722 54.1538 47.379 54.6972 47.4356C58.1548 47.4356 58.1403 50.6753 58.1403 52.4622V56.5445V56.5736Z" fill="#0077B7"/>
</svg>
