<svg xmlns="http://www.w3.org/2000/svg" width="352" height="350" viewBox="0 0 352 350"><path d="M189.43936 9.1385l10.81696 27.461c0.80256 2.0405 2.5696 3.535 4.70976 3.9935c2.14016 0.4585 4.36832 -0.196 5.9312 -1.729l21.06016 -20.692c9.35264 -9.1805 25.12576 -2.1665 24.54848 10.927l-1.29888 29.491c-0.09856 2.1875 0.90816 4.2665 2.67872 5.558s4.0656 1.603 6.11776 0.84l27.65664 -10.3425c12.27424 -4.5885 23.83392 8.232 17.98016 19.9605l-13.19296 26.3655c-0.97856 1.9635 -0.8976 4.277 0.19712 6.1635c1.09472 1.8935 3.06944 3.115 5.24832 3.2515l29.48352 1.7955c13.08384 0.791 18.42016 17.206 8.29664 25.536l-22.78848 18.76c-1.6896 1.3965 -2.5696 3.5455 -2.33728 5.712c0.22528 2.177 1.53472 4.102 3.47776 5.1065l26.1888 13.622c11.64064 6.0445 9.83136 23.2015 -2.80544 26.698l-28.4592 7.882c-2.112 0.5845 -3.79104 2.1875 -4.47744 4.2665c-0.67584 2.0895 -0.264 4.3645 1.10528 6.083l18.392 23.086c8.16992 10.255 -0.46816 25.193 -13.43584 23.2505l-29.19136 -4.347c-2.16832 -0.322 -4.3472 0.4585 -5.81504 2.0895c-1.46432 1.6205 -2.01344 3.878 -1.46432 5.9955l7.39904 28.5635c3.28416 12.6945 -10.67968 22.82 -21.73248 15.7815l-24.90048 -15.8585c-1.848 -1.183 -4.16416 -1.3475 -6.15648 -0.4585c-2.00288 0.889 -3.42144 2.723 -3.78048 4.8825l-4.88576 29.099c-2.16128 12.929 -19.05728 16.513 -26.28736 5.586l-16.29056 -24.6085c-1.21088 -1.827 -3.256 -2.919 -5.44192 -2.919s-4.23104 1.092 -5.44192 2.919l-16.29056 24.6085c-7.23008 10.927 -24.1296 7.343 -26.28736 -5.586l-4.88576 -29.099c-0.36256 -2.1595 -1.7776 -3.9935 -3.78048 -4.8825c-2.00288 -0.889 -4.31904 -0.721 -6.16704 0.4585L88.27456 320.299c-11.08096 7.0105 -25.0272 -3.1255 -21.74304 -15.8095l7.40608 -28.5635c0.5456 -2.1175 0 -4.375 -1.46432 -6.006c-1.47488 -1.6205 -3.65376 -2.401 -5.8256 -2.079l-29.20192 4.3645c-12.96768 1.953 -21.60576 -12.999 -13.43584 -23.2505l18.392 -23.086c1.36928 -1.708 1.78816 -3.983 1.11232 -6.0655c-0.66528 -2.079 -2.33728 -3.6925 -4.4352 -4.2875l-28.4592 -7.882c-12.68608 -3.4965 -14.48128 -20.6535 -2.816 -26.698l26.19936 -13.622c1.94304 -1.015 3.24544 -2.9295 3.47776 -5.1065c0.22528 -2.177 -0.65472 -4.326 -2.34432 -5.712l-22.8272 -18.76c-10.12352 -8.33 -4.7872 -24.745 8.3072 -25.536l29.47296 -1.7955c2.18944 -0.126 4.16416 -1.3475 5.25888 -3.241s1.1616 -4.2175 0.18656 -6.1705l-13.1824 -26.3655c-5.86432 -11.718 5.69888 -24.549 17.98016 -19.9605l27.65664 10.3425c2.05216 0.763 4.3472 0.448 6.11776 -0.8295c1.77056 -1.288 2.77376 -3.3775 2.67872 -5.565l-1.28832 -29.512c-0.57728 -13.0935 15.2064 -20.1075 24.54848 -10.927l21.06016 20.692c1.56288 1.533 3.79104 2.1875 5.9312 1.729c2.15072 -0.4585 3.91776 -1.953 4.72032 -3.9935l10.80992 -27.461C167.37248 -3.045 184.69088 -3.045 189.43936 9.1385z" fill="#bd99f8"/></svg>