<?xml version="1.0" encoding="utf-8"?><!--Optimized by PicsArt, converter script v0.4.0--><svg xmlns="http://www.w3.org/2000/svg" role="img" viewBox="0 0 37.23 35.02" x="0" y="0" width="37.23" height="35.02"><path fill="#bd99f8" d="M15.05 2.2C13.96 3 12.7 4.02 11.38 5.31C8.5 8.13 5.35 12.21 3.04 17.89C1.6 21.45 0.5 25.63 0 30.51C0 30.52 0 30.52 0.01 30.53C0.13 30.6 2.82 32.12 7.19 33.36C10.35 34.26 14.38 35.02 18.97 35C22.6 34.98 26.57 34.46 30.72 33.13C32.77 32.48 34.87 31.62 36.99 30.52C37 30.38 37.23 26.16 35.31 20.44C34.12 16.88 32.09 12.75 28.66 8.66C26.15 5.67 22.9 2.7 18.67 0L18.66 0C18.57 0.04 17.11 0.7 15.05 2.2" /></svg>