<svg width="91" height="53" viewBox="0 0 91 53" fill="none" xmlns="http://www.w3.org/2000/svg">
<rect x="2" y="5" width="88" height="42" rx="8" stroke="#C209C1" stroke-width="2"/>
<path d="M48.6094 25.71H41.1094C40.8332 25.71 40.6094 25.9338 40.6094 26.21C40.6094 26.4861 40.8332 26.71 41.1094 26.71H48.6094C48.8855 26.71 49.1094 26.4861 49.1094 26.21C49.1094 25.9338 48.8855 25.71 48.6094 25.71Z" fill="#C209C1"/>
<path d="M48.6094 28.71H41.1094C40.8332 28.71 40.6094 28.9338 40.6094 29.21C40.6094 29.4861 40.8332 29.71 41.1094 29.71H48.6094C48.8855 29.71 49.1094 29.4861 49.1094 29.21C49.1094 28.9338 48.8855 28.71 48.6094 28.71Z" fill="#C209C1"/>
<path d="M48.6191 22.71H46.2891C46.0129 22.71 45.7891 22.9338 45.7891 23.21C45.7891 23.4861 46.0129 23.71 46.2891 23.71H48.6191C48.8952 23.71 49.1191 23.4861 49.1191 23.21C49.1191 22.9338 48.8952 22.71 48.6191 22.71Z" fill="#C209C1"/>
<path d="M48.6094 31.71H41.1094C40.8332 31.71 40.6094 31.9338 40.6094 32.21C40.6094 32.4861 40.8332 32.71 41.1094 32.71H48.6094C48.8855 32.71 49.1094 32.4861 49.1094 32.21C49.1094 31.9338 48.8855 31.71 48.6094 31.71Z" fill="#C209C1"/>
<path d="M44.5194 21.71C44.5194 22.6765 43.7359 23.46 42.7694 23.46H42.6094C41.6429 23.46 40.8594 22.6765 40.8594 21.71V21.52C40.8594 20.5535 41.6429 19.77 42.6094 19.77H42.7694C43.7359 19.77 44.5194 20.5535 44.5194 21.52V21.71ZM41.0394 21.64C41.0394 22.5513 41.7781 23.29 42.6894 23.29C43.6007 23.29 44.3394 22.5513 44.3394 21.64C44.3394 20.7288 43.6007 19.99 42.6894 19.99C41.7781 19.99 41.0394 20.7288 41.0394 21.64Z" stroke="#C209C1" stroke-width="0.5" stroke-linecap="round" stroke-linejoin="round"/>
<path d="M49.8492 17.1299H39.8792C38.9514 17.1299 38.1992 17.882 38.1992 18.8099V33.4599C38.1992 34.3877 38.9514 35.1399 39.8792 35.1399H49.8492C50.7771 35.1399 51.5292 34.3877 51.5292 33.4599V18.8099C51.5292 17.882 50.7771 17.1299 49.8492 17.1299Z" stroke="#C209C1" stroke-width="1.2" stroke-miterlimit="10"/>
</svg>
