<svg xmlns="http://www.w3.org/2000/svg" width="352" height="350" viewBox="0 0 352 350"><path d="M176 0L202.9984 49.98L247.984 15.295L252.3136 71.925L307.5072 58.555L288.4288 112.035L344.2912 122.255L305.1136 163.38L352 195.44L299.4816 217.035L329.2608 265.405L272.4832 263.795L280.016 320.075L228.8 295.505L212.784 350L176 306.74L139.216 350L123.2 295.505L71.984 320.075L79.5168 263.795L22.7392 265.405L52.5184 217.035L0 195.44L46.8864 163.38L7.7088 122.255L63.5712 112.035L44.4928 58.555L99.6864 71.925L104.016 15.295L149.0016 49.98z" fill="#bd99f8"/></svg>