<?xml version="1.0" encoding="iso-8859-1"?>
<!-- Generator: Adobe Illustrator 26.5.0, SVG Export Plug-In . SVG Version: 6.00 Build 0)  -->
<svg version="1.1" id="Layer_2_00000042723818474913765560000016166621492035735228_"
	 xmlns="http://www.w3.org/2000/svg" xmlns:xlink="http://www.w3.org/1999/xlink" x="0px" y="0px" viewBox="0 0 239.997 240"
	 style="enable-background:new 0 0 239.997 240;" xml:space="preserve">
<path style="fill:#BC97F7;" d="M34.777,203.269c-0.19,0.555-0.047,1.171,0.367,1.585c0.416,0.414,1.03,0.558,1.585,0.367
	l55.883-19.103l26.005,53.02c0.258,0.526,0.795,0.861,1.38,0.861s1.122-0.333,1.38-0.861l26.005-53.02l55.883,19.103
	c0.555,0.19,1.171,0.047,1.585-0.367c0.416-0.416,0.558-1.03,0.367-1.585l-19.104-55.883l53.021-26.005
	c0.526-0.258,0.861-0.795,0.861-1.38c0-0.586-0.333-1.122-0.861-1.38l-53.021-26.005l19.104-55.883
	c0.19-0.555,0.047-1.17-0.367-1.585c-0.414-0.414-1.03-0.558-1.585-0.367l-55.883,19.104L121.381,0.861
	C121.123,0.335,120.587,0,120.001,0s-1.122,0.333-1.38,0.861l-26.005,53.02L36.732,34.777c-0.555-0.189-1.17-0.047-1.585,0.367
	c-0.414,0.414-0.558,1.03-0.367,1.585l19.104,55.883L0.861,118.619C0.335,118.877,0,119.413,0,119.999s0.333,1.122,0.861,1.38
	l53.02,26.005l-19.104,55.883L34.777,203.269z M5.031,119.999l51.421-25.22c0.695-0.341,1.029-1.146,0.777-1.878L38.703,38.703
	l54.198,18.526c0.734,0.251,1.538-0.082,1.878-0.777l25.22-51.421l25.22,51.421c0.342,0.695,1.146,1.029,1.878,0.777l54.198-18.526
	l-18.528,54.198c-0.251,0.732,0.082,1.538,0.777,1.878l51.421,25.22l-51.421,25.22c-0.695,0.342-1.029,1.146-0.777,1.878
	l18.528,54.198l-54.198-18.528c-0.732-0.25-1.537,0.082-1.878,0.777l-25.22,51.421l-25.22-51.421
	c-0.265-0.539-0.809-0.861-1.38-0.861c-0.166,0-0.333,0.027-0.498,0.082l-54.198,18.528l18.526-54.198
	c0.251-0.732-0.082-1.537-0.777-1.878L5.031,119.999z"/>
</svg>
