<svg width="115" height="41" viewBox="0 0 115 41" fill="none" xmlns="http://www.w3.org/2000/svg">
<rect x="2" y="4" width="112" height="32" rx="8" stroke="#5A00EE" stroke-width="2"/>
<path d="M53.4 18.3752C53.4 18.0439 53.6686 17.7752 54 17.7752H61C61.3314 17.7752 61.6 18.0439 61.6 18.3752C61.6 18.7066 61.3314 18.9752 61 18.9752H54C53.6686 18.9752 53.4 18.7066 53.4 18.3752Z" fill="#5A00EE"/>
<path d="M54 15.7699C53.6686 15.7699 53.4 16.0385 53.4 16.3699C53.4 16.7012 53.6686 16.9699 54 16.9699H61C61.3314 16.9699 61.6 16.7012 61.6 16.3699C61.6 16.0385 61.3314 15.7699 61 15.7699H54Z" fill="#5A00EE"/>
<path fill-rule="evenodd" clip-rule="evenodd" d="M65.5 14.3699V17.7426C65.9777 18.2487 66.25 18.9226 66.25 19.6301V25.6301C66.25 27.1489 65.0188 28.3801 63.5 28.3801H51.5C49.9812 28.3801 48.75 27.1489 48.75 25.6301V19.6301C48.75 18.8184 49.1084 18.0511 49.7241 17.5304V14.3699C49.7241 13.4034 50.5076 12.6199 51.4741 12.6199H63.75C64.7165 12.6199 65.5 13.4034 65.5 14.3699ZM51.2241 14.3699C51.2241 14.2318 51.3361 14.1199 51.4741 14.1199H63.75C63.8881 14.1199 64 14.2318 64 14.3699V18.6512L60.182 21.9405L59.2949 21.1763C58.2633 20.2876 56.7367 20.2876 55.7051 21.1763L54.818 21.9405L51.2241 18.8443V14.3699ZM53.669 22.9305L50.25 19.9849V25.6301C50.25 25.708 50.2571 25.7842 50.2707 25.8581L53.669 22.9305ZM51.3883 26.8752C51.4251 26.8785 51.4624 26.8801 51.5 26.8801H63.5C63.5376 26.8801 63.5749 26.8785 63.6117 26.8752L58.3159 22.3127C57.847 21.9088 57.153 21.9088 56.6841 22.3127L51.3883 26.8752ZM64.7293 25.8581C64.7429 25.7842 64.75 25.708 64.75 25.6301V19.9849L61.331 22.9305L64.7293 25.8581Z" fill="#5A00EE"/>
</svg>
