<?xml version="1.0" encoding="iso-8859-1"?>
<!-- Generator: Adobe Illustrator 26.5.0, SVG Export Plug-In . SVG Version: 6.00 Build 0)  -->
<svg version="1.1" id="Layer_2_00000054236985554014409470000002069433686108511366_"
	 xmlns="http://www.w3.org/2000/svg" xmlns:xlink="http://www.w3.org/1999/xlink" x="0px" y="0px" viewBox="0 0 240 227.21"
	 style="enable-background:new 0 0 240 227.21;" xml:space="preserve">
<path style="fill:#BC97F7;" d="M186.292,55.957c-17.615-20.985-39.215-39.711-64.201-55.66C121.786,0.103,121.432,0,121.072,0
	h-0.065c-0.266,0-0.528,0.056-0.769,0.162c-0.402,0.178-9.978,4.476-23.389,14.243c-0.002,0-0.003,0.003-0.005,0.003
	c-8.367,6.141-16.319,12.878-23.632,20.026c-22.877,22.4-40.934,49.634-53.668,80.946C9.567,140.048,2.995,167.326,0.01,196.459
	C0.003,196.523,0,196.588,0,196.652c0,0.847,0.466,1.314,0.618,1.466c0.115,0.115,0.245,0.215,0.384,0.297
	c0.171,0.1,17.425,10.067,46.269,18.251c24.57,6.997,49.653,10.544,74.581,10.544c0.379,0,0.765,0,1.144-0.002
	c25.685-0.142,51.112-4.188,75.567-12.026c13.607-4.314,27.174-9.961,40.325-16.785c0.585-0.304,0.97-0.889,1.017-1.546
	c0.019-0.271,1.784-27.539-10.817-65.08c-9.141-27.345-23.54-52.852-42.795-75.813L186.292,55.957z M236.173,195.534
	c-12.656,6.499-25.689,11.893-38.761,16.037c-24.093,7.722-49.137,11.708-74.435,11.848c-24.936,0.124-50.067-3.39-74.67-10.397
	c-24.169-6.858-40.37-15.158-44.41-17.335c3.003-28.341,9.445-54.875,19.156-78.879C35.59,85.982,53.357,59.18,75.86,37.145
	c7.286-7.121,14.882-13.558,23.223-19.68c10.948-7.972,19.187-12.171,21.815-13.43C145.2,19.656,166.22,37.94,183.39,58.392
	c18.95,22.594,33.116,47.687,42.105,74.581C236.479,165.696,236.352,190.274,236.173,195.534z"/>
</svg>
