<?xml version="1.0" encoding="utf-8"?><!--Optimized by PicsArt, converter script v0.4.0--><svg xmlns="http://www.w3.org/2000/svg" role="img" viewBox="0 0 980.17 28.22" x="0" y="0" width="980.17" height="28.22"><path fill="#bd99f8" d="M947.49 28.22C936.9 28.22 931.43 22.62 927.04 18.13C923.28 14.28 920.56 11.5 914.81 11.5C909.06 11.5 906.34 14.28 902.58 18.13C898.19 22.62 892.72 28.22 882.13 28.22C871.54 28.22 866.13 22.62 861.68 18.13C857.92 14.28 855.2 11.5 849.46 11.5C843.72 11.5 840.99 14.28 837.23 18.13C832.84 22.62 827.37 28.22 816.78 28.22C806.19 28.22 800.72 22.62 796.33 18.13C792.57 14.28 789.85 11.5 784.1 11.5C778.35 11.5 775.64 14.28 771.88 18.13C767.49 22.62 762.02 28.22 751.43 28.22C740.84 28.22 735.43 22.62 730.98 18.13C727.23 14.28 724.51 11.5 718.76 11.5C713.01 11.5 710.3 14.28 706.54 18.13C702.14 22.62 696.68 28.22 686.09 28.22C675.5 28.22 670 22.62 665.64 18.13C661.88 14.28 659.16 11.5 653.41 11.5C647.66 11.5 644.95 14.28 641.19 18.13C636.79 22.62 631.33 28.22 620.74 28.22C610.15 28.22 604.68 22.62 600.29 18.13C596.53 14.28 593.81 11.5 588.06 11.5C582.31 11.5 579.6 14.28 575.84 18.13C571.45 22.62 565.98 28.22 555.39 28.22C544.8 28.22 539.39 22.62 534.94 18.13C531.18 14.28 528.47 11.5 522.72 11.5C516.97 11.5 514.26 14.28 510.5 18.13C506.1 22.62 500.64 28.22 490.05 28.22C479.46 28.22 474 22.62 469.6 18.13C465.84 14.28 463.12 11.5 457.37 11.5C451.62 11.5 448.91 14.28 445.15 18.13C440.76 22.62 435.29 28.22 424.7 28.22C414.11 28.22 408.65 22.62 404.26 18.13C400.5 14.28 397.78 11.5 392.03 11.5C386.28 11.5 383.57 14.28 379.81 18.13C375.42 22.62 369.95 28.22 359.36 28.22C348.77 28.22 343.31 22.62 338.92 18.13C335.16 14.28 332.44 11.5 326.69 11.5C320.94 11.5 318.23 14.28 314.47 18.13C310.08 22.62 304.61 28.22 294.03 28.22C283.45 28.22 278 22.62 273.58 18.13C269.82 14.28 267.1 11.5 261.35 11.5C255.6 11.5 252.89 14.28 249.13 18.13C244.74 22.62 239.27 28.22 228.68 28.22C218.09 28.22 212.63 22.62 208.24 18.13C204.48 14.28 201.76 11.5 196.02 11.5C190.28 11.5 187.55 14.28 183.8 18.13C179.4 22.62 173.94 28.22 163.35 28.22C152.76 28.22 147.29 22.62 142.9 18.13C139.14 14.28 136.43 11.5 130.68 11.5C124.93 11.5 122.22 14.28 118.46 18.13C114.07 22.62 108.6 28.22 98 28.22C87.4 28.22 82 22.62 77.57 18.13C73.81 14.28 71.09 11.5 65.34 11.5C59.59 11.5 56.88 14.28 53.12 18.13C48.73 22.62 43.26 28.22 32.67 28.22C22.08 28.22 16.67 22.62 12.22 18.13C8.46 14.28 5.75 11.5 0 11.5L0 0C10.59 0 16.05 5.6 20.45 10.09C24.21 13.94 26.92 16.72 32.67 16.72C38.42 16.72 41.14 13.94 44.9 10.09C49.29 5.6 54.76 0 65.34 0C75.92 0 81.4 5.6 85.79 10.09C89.55 13.94 92.27 16.72 98.02 16.72C103.77 16.72 106.48 13.94 110.24 10.09C114.63 5.6 120.09 0 130.68 0C141.27 0 146.68 5.6 151.13 10.09C154.89 13.94 157.6 16.72 163.35 16.72C169.1 16.72 171.81 13.94 175.57 10.09C180 5.6 185.43 0 196 0C206.57 0 212 5.6 216.44 10.09C220.2 13.94 222.92 16.72 228.66 16.72C234.4 16.72 237.13 13.94 240.89 10.09C245.3 5.6 250.76 0 261.35 0C271.94 0 277.41 5.6 281.8 10.09C285.56 13.94 288.28 16.72 294.03 16.72C299.78 16.72 302.49 13.94 306.25 10.09C310.64 5.6 316.11 0 326.69 0C337.27 0 342.75 5.6 347.14 10.09C350.9 13.94 353.62 16.72 359.36 16.72C365.1 16.72 367.83 13.94 371.59 10.09C376 5.6 381.44 0 392 0C402.56 0 408.06 5.6 412.45 10.09C416.21 13.94 418.93 16.72 424.67 16.72C430.41 16.72 433.14 13.94 436.9 10.09C441.32 5.6 446.79 0 457.37 0C467.95 0 473.43 5.6 477.82 10.09C481.58 13.94 484.3 16.72 490.05 16.72C495.8 16.72 498.51 13.94 502.27 10.09C506.66 5.6 512.13 0 522.72 0C533.31 0 538.78 5.6 543.17 10.09C546.93 13.94 549.65 16.72 555.39 16.72C561.13 16.72 563.86 13.94 567.62 10.09C572 5.6 577.48 0 588.06 0C598.64 0 604.12 5.6 608.51 10.09C612.27 13.94 614.99 16.72 620.74 16.72C626.49 16.72 629.2 13.94 632.96 10.09C637.36 5.6 642.82 0 653.41 0C664 0 669.47 5.6 673.86 10.09C677.62 13.94 680.34 16.72 686.09 16.72C691.84 16.72 694.55 13.94 698.31 10.09C702.71 5.6 708.17 0 718.76 0C729.35 0 734.82 5.6 739.21 10.09C742.97 13.94 745.69 16.72 751.43 16.72C757.17 16.72 759.9 13.94 763.66 10.09C768.05 5.6 773.52 0 784.1 0C794.68 0 800.16 5.6 804.55 10.09C808.31 13.94 811.03 16.72 816.78 16.72C822.53 16.72 825.24 13.94 829.01 10.09C833.4 5.6 838.87 0 849.46 0C860.05 0 865.46 5.6 869.91 10.09C873.67 13.94 876.38 16.72 882.13 16.72C887.88 16.72 890.6 13.94 894.36 10.09C898.75 5.6 904.22 0 914.81 0C925.4 0 930.87 5.6 935.26 10.09C939.02 13.94 941.74 16.72 947.49 16.72C953.24 16.72 955.96 13.94 959.72 10.09C964.11 5.6 969.58 0 980.17 0L980.17 11.5C974.42 11.5 971.7 14.28 967.94 18.13C963.55 22.62 958.08 28.22 947.49 28.22Z" /></svg>