<?xml version="1.0" encoding="utf-8"?>
<!-- Generator: Adobe Illustrator 26.0.1, SVG Export Plug-In . SVG Version: 6.00 Build 0)  -->
<svg version="1.1" id="Layer_1" xmlns="http://www.w3.org/2000/svg" xmlns:xlink="http://www.w3.org/1999/xlink" x="0px" y="0px"
	 viewBox="0 0 980.6 12" style="enable-background:new 0 0 980.6 12;" xml:space="preserve">

<path fill="#bd99f8" d="M974.6,11.9h-46.8c-2.1,0.1-4.1-1-5.2-2.8c-1.1-1.8-1.1-4.1,0-5.9c1.1-1.8,3-2.9,5.2-2.8h46.8
	c2.1-0.1,4.1,1,5.2,2.8c1.1,1.8,1.1,4.1,0,5.9C978.7,10.9,976.7,12,974.6,11.9z M873.8,11.9c-2.3,0-4.4-1.4-5.3-3.5
	c-0.9-2.1-0.4-4.6,1.2-6.2c1.6-1.6,4.1-2.1,6.2-1.2c2.1,0.9,3.5,3,3.5,5.3C879.5,9.3,876.9,11.9,873.8,11.9z M801,11.9h-46.8
	c-2.1,0.1-4.1-1-5.2-2.8c-1.1-1.8-1.1-4.1,0-5.9c1.1-1.8,3.1-2.9,5.2-2.8H801c2.1-0.1,4.1,1,5.1,2.8c1.1,1.8,1.1,4.1,0,5.9
	C805.1,10.9,803.1,12,801,11.9z M700.2,11.9c-2.3,0-4.4-1.4-5.3-3.5c-0.9-2.1-0.4-4.6,1.2-6.2c1.6-1.6,4.1-2.1,6.2-1.2
	c2.1,0.9,3.5,3,3.5,5.3C705.9,9.3,703.3,11.9,700.2,11.9z M627.4,11.9h-46.8c-3.1-0.1-5.5-2.7-5.5-5.7c0-3.1,2.4-5.6,5.5-5.7h46.8
	c2.1-0.1,4.1,1,5.2,2.8c1.1,1.8,1.1,4.1,0,5.9C631.5,10.9,629.5,12,627.4,11.9z M526.6,11.9c-2.3,0-4.4-1.4-5.3-3.5
	c-0.9-2.1-0.4-4.6,1.2-6.2c1.6-1.6,4.1-2.1,6.2-1.2c2.1,0.9,3.5,3,3.5,5.3C532.3,9.3,529.8,11.9,526.6,11.9z M453.9,11.9h-46.8
	c-3.1-0.1-5.5-2.7-5.5-5.7c0-3.1,2.4-5.6,5.5-5.7h46.8c3.1,0.1,5.5,2.6,5.5,5.7C459.3,9.2,456.9,11.8,453.9,11.9z M353,11.9
	c-2.3,0-4.4-1.4-5.3-3.5c-0.9-2.1-0.4-4.6,1.2-6.2c1.6-1.6,4.1-2.1,6.2-1.2c2.1,0.9,3.5,3,3.5,5.3c0,1.5-0.6,3-1.7,4
	C356,11.3,354.5,11.9,353,11.9z M280.3,11.9h-46.8c-2.1,0.1-4.1-1-5.1-2.8c-1.1-1.8-1.1-4.1,0-5.9c1.1-1.8,3.1-2.9,5.1-2.8h46.8
	c2.1-0.1,4.1,1,5.2,2.8c1.1,1.8,1.1,4.1,0,5.9C284.3,10.9,282.4,12,280.3,11.9z M179.4,11.9c-2.3,0-4.4-1.4-5.3-3.5
	s-0.4-4.6,1.2-6.2c1.6-1.6,4.1-2.1,6.2-1.2c2.1,0.9,3.5,3,3.5,5.3C185.1,9.3,182.6,11.9,179.4,11.9z M106.7,11.9H59.9
	c-2.1,0.1-4.1-1-5.1-2.8c-1.1-1.8-1.1-4.1,0-5.9c1.1-1.8,3-2.9,5.1-2.8h46.8c2.1-0.1,4.1,1,5.2,2.8c1.1,1.8,1.1,4.1,0,5.9
	C110.8,10.9,108.8,12,106.7,11.9z M5.9,11.9c-2.3,0-4.4-1.4-5.3-3.5c-0.9-2.1-0.4-4.6,1.2-6.2C3.4,0.5,5.9,0,8,0.9
	c2.1,0.9,3.5,3,3.5,5.3C11.6,9.3,9,11.9,5.9,11.9z"/>
</svg>
