<svg xmlns="http://www.w3.org/2000/svg" width="350" height="350" viewBox="0 0 350 350"><path d="M0 52.5Q0 42.07 3.99 32.41Q7.98 22.75 15.365 15.365Q22.75 7.98 32.41 3.99Q42.07 0 52.5 0H297.5Q307.93 0 317.59 3.99Q327.25 7.98 334.635 15.365Q342.02 22.75 346.01 32.41Q350 42.07 350 52.5V297.5Q350 307.93 346.01 317.59Q342.02 327.25 334.635 334.635Q327.25 342.02 317.59 346.01Q307.93 350 297.5 350H52.5Q42.07 350 32.41 346.01Q22.75 342.02 15.365 334.635Q7.98 327.25 3.99 317.59Q0 307.93 0 297.5z" fill="#bd99f8"/></svg>