<svg xmlns="http://www.w3.org/2000/svg" width="350" height="350" viewBox="0 0 350 350"><path d="M138.6 3.815Q156.59 0 175 0Q193.41 0 211.4 3.815L211.4 3.815Q229.39 7.665 246.19 15.12Q262.99 22.61 277.865 33.425L277.865 33.425Q292.74 44.24 305.06 57.89Q317.345 71.575 326.55 87.5L326.55 87.5Q335.755 103.425 341.425 120.925Q347.13 138.425 349.055 156.695L349.055 156.695Q350.945 175 349.055 193.305Q347.13 211.575 341.425 229.075L341.425 229.075Q335.755 246.575 326.55 262.5Q317.345 278.425 305.06 292.11L305.06 292.11Q292.74 305.76 277.865 316.575Q262.99 327.39 246.19 334.88L246.19 334.88Q229.39 342.335 211.4 346.185Q193.41 350 175 350L175 350Q156.59 350 138.6 346.185Q120.61 342.335 103.81 334.88L103.81 334.88Q87.01 327.39 72.135 316.575Q57.26 305.76 44.94 292.11L44.94 292.11Q32.655 278.425 23.45 262.5Q14.245 246.575 8.575 229.075L8.575 229.075Q2.87 211.575 0.945 193.305Q-0.945 175 0.945 156.695L0.945 156.695Q2.87 138.425 8.575 120.925Q14.245 103.425 23.45 87.5L23.45 87.5Q32.655 71.575 44.94 57.89Q57.26 44.24 72.135 33.425L72.135 33.425Q87.01 22.61 103.81 15.12Q120.61 7.665 138.6 3.815z" fill="#bd99f8"/></svg>