<svg xmlns="http://www.w3.org/2000/svg" width="350" height="359" viewBox="0 0 350 359"><path d="M350 219.43875L318.6435 248.62545L315.2695 291.3644L274.3265 304.1089L252.8435 341.21155L210.4655 334.96495L175 359L139.517 334.96495L97.139 341.21155L75.6735 304.1089L34.713 291.3644L31.339 248.62545L0 219.43875L15.5785 179.5L0 139.56125L31.3565 110.37455L34.713 67.6356L75.6735 54.8911L97.1565 17.78845L139.517 24.03505L175 0L210.4655 24.03505L252.8435 17.78845L274.3265 54.8911L315.2695 67.6356L318.6435 110.37455L350 139.56125L334.4215 179.5L350 219.43875z" fill="#bd99f8"/></svg>